<svg xmlns="http://www.w3.org/2000/svg" enable-background="new 0 0 100 100" viewBox="0 0 100 100" id="foods"><path d="M86.5,29H41.7l-4.6-10H38c1.1,0,2-0.9,2-2V7c0-1.1-0.9-2-2-2H14c-1.1,0-2,0.9-2,2v10c0,1.1,0.9,2,2,2h0.9L5.2,40.2
	c0,0,0,0,0,0c0,0.1,0,0.1-0.1,0.2c0,0.1,0,0.1,0,0.2c0,0.1,0,0.1,0,0.2c0,0.1,0,0.2,0,0.2v46c0,1.1,0.9,2,2,2h34.2
	c1.9,3.6,5.7,6,10,6h2.1c1.6,0,3.2-0.3,4.7-1c1.5,0.6,3,1,4.7,1h2.1c4.4,0,8.2-2.4,10-6h11.8c1.1,0,2-0.9,2-2V45.8
	c3.7-0.9,6.5-4.3,6.5-8.3C95,32.8,91.2,29,86.5,29z M16,9h20v6H16V9z M43,68.6c-1.9,2-3,4.6-3,7.4v8c0,0.3,0,0.7,0,1H9V52.3l5-2.4
	l0.2-0.1c2.3-1.1,4.8-1.5,7.3-1.1c1.3,0.2,2.5,0.5,3.7,1.1c4.6,2.2,9.8,2.2,14.4,0l3.5-1.7V68.6z M43,43.7l-5,2.4l-0.2,0.1
	c-2.3,1.1-4.8,1.5-7.3,1.1c-1.3-0.2-2.5-0.5-3.7-1.1c-4.6-2.2-9.8-2.2-14.4,0L9,47.8v-6.4L9.2,41l10.1-22h13.4l10.1,22l0.2,0.4V43.7
	z M72,84c0,3.9-3.3,7-7.3,7h-2.1c-1.3,0-2.6-0.3-3.7-1c-0.3-0.2-0.6-0.2-1-0.2s-0.7,0.1-1,0.2c-1.1,0.6-2.4,1-3.7,1h-2.1
	c-4,0-7.3-3.1-7.3-7v-8c0-3.9,3.3-7,7.3-7h2.1c0.9,0,1.8,0.2,2.7,0.5V72c0,1.1,0.9,2,2,2s2-0.9,2-2v-2.5c0.8-0.3,1.7-0.5,2.7-0.5
	h2.1c4,0,7.3,3.1,7.3,7V84z M86.5,42c-1.1,0-2,0.9-2,2v41H76c0-0.3,0-0.7,0-1v-8c0-6.1-5.1-11-11.3-11h-2.1c-0.9,0-1.8,0.1-2.7,0.3
	V63c0-2.2,1.8-4,4-4c1.1,0,2-0.9,2-2c0-1.1-0.9-2-2-2c-4.4,0-8,3.6-8,8v2.3c-0.9-0.2-1.8-0.3-2.7-0.3h-2.1c-1.5,0-3,0.3-4.3,0.8V41
	c0-0.1,0-0.1,0-0.2c0-0.1,0-0.1,0-0.2c0-0.1,0-0.1,0-0.2c0-0.1,0-0.1-0.1-0.2c0,0,0,0,0,0L43.5,33h43c2.5,0,4.5,2,4.5,4.5
	C91,40,89,42,86.5,42z M26,57c-5,0-9,4-9,9c0,5,4,9,9,9s9-4,9-9C35,61,31,57,26,57z M26,71c-2.8,0-5-2.2-5-5s2.2-5,5-5s5,2.2,5,5
	S28.8,71,26,71z"></path></svg>